<svg width="1243" height="225" viewBox="0 0 1243 225" fill="none" xmlns="http://www.w3.org/2000/svg">
<path d="M244.44 32.8217H74.4164C80.6121 23.3157 117.499 8.04852 140.985 5.45599C179.024 0.991061 213.461 9.77688 244.44 32.8217Z" fill="white"/>
<path d="M33.4955 80.9276C35.945 77.0388 37.9622 73.5821 40.2676 70.5575C40.9881 69.6933 42.8612 69.5493 44.158 69.5493C54.5323 69.5493 64.9066 69.5493 75.2809 69.5493C140.985 69.5493 206.545 69.5493 272.248 69.5493C276.571 69.5493 279.453 70.4134 281.326 74.4463C282.335 76.6067 283.631 78.4791 285.216 81.0716H33.4955V80.9276Z" fill="white"/>
<path d="M26.1471 96.7709C27.732 93.4582 28.8847 90.5777 30.4697 87.8411C31.046 86.8329 32.7751 86.1127 33.9278 86.1127C38.2504 85.9687 42.573 86.1127 46.8957 86.1127C124.415 86.1127 201.934 86.1127 279.453 86.1127C288.818 86.1127 289.683 86.8329 292.277 96.915H26.1471V96.7709Z" fill="white"/>
<path d="M43.1494 65.2283C46.7516 60.9075 49.6333 57.1627 53.0914 53.706C54.1 52.6978 56.2613 52.8418 57.8463 52.8418C124.415 52.8418 190.983 52.8418 257.552 52.6978C263.603 52.6978 267.926 54.1381 270.952 59.1791C272.248 61.1955 273.689 62.9239 275.562 65.2283H43.1494Z" fill="white"/>
<path d="M298.04 111.894H20.8158C21.8244 108.725 22.689 105.989 23.8417 103.396C24.1298 102.676 25.2825 102.1 26.1471 101.812C27.4439 101.524 28.7406 101.812 30.0374 101.812C116.058 101.812 202.222 101.812 288.242 101.812C295.735 101.812 294.294 100.516 297.031 108.293C297.32 109.302 297.608 110.31 298.04 111.894Z" fill="white"/>
<path d="M301.21 127.017H17.3577C17.9341 124.281 18.2223 121.688 19.0868 119.24C19.375 118.375 21.104 117.655 22.1126 117.655C26.7234 117.511 31.3342 117.655 35.945 117.655C121.677 117.655 207.265 117.655 292.997 117.655C300.634 117.655 301.354 118.375 301.21 127.017Z" fill="white"/>
<path d="M261.874 49.5291H56.9818C56.8377 49.2411 56.5495 48.953 56.4054 48.665C61.0162 44.6321 65.627 40.5993 70.3819 36.8545C71.1024 36.2784 72.3991 36.2784 73.4078 36.2784C130.755 36.2784 188.245 36.2784 245.592 36.2784C247.177 36.2784 249.05 36.9985 250.203 37.8627C254.382 41.3194 258.416 45.0642 262.451 48.665C262.306 48.953 262.162 49.2411 262.018 49.3851L261.874 49.5291Z" fill="white"/>
<path d="M15.9169 141.852C15.7728 141.42 15.6287 141.276 15.6287 141.132C15.7247 135.947 18.3183 133.354 23.4094 133.354C114.185 133.354 204.96 133.354 295.879 133.354C303.804 133.354 303.804 133.354 303.515 141.852H15.9169Z" fill="white"/>
<path d="M15.1964 156.975V149.486H303.804C303.948 150.062 304.236 150.494 304.236 151.07C304.428 155.199 302.555 157.263 298.616 157.263C205.536 157.263 112.455 157.263 19.375 157.263C18.0782 157.263 16.7814 157.263 15.3405 157.119L15.1964 156.975Z" fill="white"/>
<path d="M15.6287 165.329H303.083C303.804 171.81 303.515 172.243 297.32 172.243C205.536 172.243 113.896 172.243 22.1126 172.243C17.8861 172.243 15.7247 169.938 15.6287 165.329Z" fill="white"/>
<path d="M301.066 181.028C300.682 185.061 298.664 187.078 295.014 187.078C204.527 187.078 114.185 187.078 23.6976 187.078C20.1434 187.078 18.1742 185.061 17.79 181.028H300.922H301.066Z" fill="white"/>
<path d="M297.031 196.872C297.031 201.481 294.582 202.201 290.836 202.201C203.086 202.201 115.193 202.201 27.4439 202.201C23.5535 202.201 22.4008 200.472 21.9685 196.872H297.176H297.031Z" fill="white"/>
<path d="M28.0202 212.427H290.836C290.836 216.172 288.818 217.036 285.504 217.036C201.213 217.036 117.066 217.036 32.7751 217.036C29.6052 217.036 28.5966 215.452 28.0202 212.427Z" fill="white"/>
<path d="M496.401 154.193C498.042 155.505 498.698 156.817 498.37 158.128C497.714 159.44 496.401 160.096 494.433 160.096H484.92C482.951 160.096 480.983 159.44 479.015 157.8L429.808 120.418L380.601 157.8C378.633 159.112 376.664 160.096 374.696 160.096H365.183C362.886 160.096 361.574 159.44 361.246 158.128C360.59 156.817 361.246 155.505 363.214 154.193L418.982 112.22L365.183 71.5584C363.542 70.2467 362.886 68.9351 363.214 67.6234C363.87 66.3117 365.183 65.6559 367.479 65.6559H376.664C378.633 65.6559 380.601 66.3118 382.569 67.9513L430.136 104.022L477.703 67.9513C479.671 66.6397 481.639 65.6559 483.608 65.6559H492.793C495.089 65.6559 496.401 66.3117 497.057 67.6234C497.714 68.9351 497.057 70.2467 495.089 71.5584L441.289 112.22L497.057 154.193H496.401Z" fill="white"/>
<path d="M508.539 119.762C508.539 116.483 510.179 115.171 513.132 115.171H571.524C574.805 115.171 576.117 116.811 576.117 119.762V123.697C576.117 126.976 574.477 128.288 571.524 128.288H513.132C509.851 128.288 508.539 126.648 508.539 123.697V119.762Z" fill="white"/>
<path d="M801.485 65.328C803.453 65.328 804.766 65.9838 805.422 66.9676C806.078 67.9513 805.422 69.263 804.766 70.9026L743.749 157.144C742.437 159.112 740.468 160.096 737.844 160.096H729.315C726.69 160.096 724.722 159.112 723.41 157.144L696.838 119.762L670.266 157.144C668.626 159.112 666.658 160.096 664.361 160.096H655.504C652.88 160.096 650.912 159.112 649.599 157.144L588.583 70.9026C587.598 69.263 587.27 67.9513 587.927 66.9676C588.583 65.9838 589.567 65.328 591.863 65.328H598.424C600.72 65.328 602.689 66.3117 604.001 68.2792L659.769 147.635L688.309 107.629L662.065 70.9026C661.081 69.263 660.753 67.9513 661.409 66.9676C662.065 65.9838 663.049 65.328 665.346 65.328H671.907C674.203 65.328 676.171 66.3117 677.483 68.2792L733.579 147.635L789.347 68.2792C790.66 66.3117 792.628 65.328 794.924 65.328H801.485Z" fill="white"/>
<path d="M928.767 154.193C930.079 155.833 930.079 157.144 929.751 158.128C929.095 159.112 927.783 159.768 925.815 159.768H919.254C916.957 159.768 914.989 158.784 913.677 156.816L900.555 139.109H809.03L795.908 156.816C794.596 158.784 792.628 159.768 790.331 159.768H783.77C781.802 159.768 780.49 159.112 779.834 158.128C779.178 157.144 779.834 155.833 780.818 154.193L844.131 67.9513C845.443 65.9838 847.411 65 850.036 65H858.893C861.518 65 863.486 65.9838 864.798 67.9513L928.111 154.193H928.767ZM818.215 126.648H891.37L854.629 76.805L817.887 126.648H818.215Z" fill="white"/>
<path d="M1045.22 65.328C1048.5 65.328 1049.82 66.9676 1049.82 69.9188V73.8538C1049.82 77.1329 1048.18 78.4446 1045.22 78.4446H988.8V154.849C988.8 158.128 987.16 159.44 984.207 159.44H979.615C976.334 159.44 975.022 157.8 975.022 154.849V78.4446H918.598C915.317 78.4446 914.005 76.805 914.005 73.8538V69.9188C914.005 66.6396 915.645 65.328 918.598 65.328H1045.55H1045.22Z" fill="white"/>
<path d="M1193.5 65.328C1196.78 65.328 1198.09 66.9676 1198.09 69.9188V73.8538C1198.09 77.1329 1196.45 78.4446 1193.5 78.4446H1137.08V154.849C1137.08 158.128 1135.44 159.44 1132.48 159.44H1127.89C1124.61 159.44 1123.3 157.8 1123.3 154.849V78.4446H1066.87C1063.59 78.4446 1062.28 76.805 1062.28 73.8538V69.9188C1062.28 66.6396 1063.92 65.328 1066.87 65.328H1193.83H1193.5Z" fill="white"/>
</svg>
