<svg width="882" height="225" viewBox="0 0 882 225" fill="none" xmlns="http://www.w3.org/2000/svg">
<path d="M244.44 32.8216H74.4164C80.6121 23.3157 117.499 8.04851 140.985 5.45597C179.024 0.991045 213.461 9.77687 244.44 32.8216Z" fill="white"/>
<path d="M33.4955 80.9276C35.945 77.0388 37.9622 73.5821 40.2676 70.5575C40.9881 69.6933 42.8612 69.5493 44.158 69.5493C54.5323 69.5493 64.9066 69.5493 75.2809 69.5493C140.985 69.5493 206.545 69.5493 272.248 69.5493C276.571 69.5493 279.453 70.4134 281.326 74.4463C282.335 76.6067 283.631 78.4791 285.216 81.0716H33.4955V80.9276Z" fill="white"/>
<path d="M26.1471 96.7709C27.732 93.4582 28.8847 90.5776 30.4697 87.8411C31.0461 86.8328 32.7751 86.1127 33.9278 86.1127C38.2504 85.9687 42.5731 86.1127 46.8957 86.1127C124.415 86.1127 201.934 86.1127 279.453 86.1127C288.818 86.1127 289.683 86.8328 292.277 96.9149H26.1471V96.7709Z" fill="white"/>
<path d="M43.1494 65.2284C46.7516 60.9075 49.6333 57.1627 53.0914 53.706C54.1 52.6978 56.2613 52.8418 57.8463 52.8418C124.415 52.8418 190.983 52.8418 257.552 52.6978C263.603 52.6978 267.926 54.1381 270.952 59.1791C272.248 61.1955 273.689 62.9239 275.562 65.2284H43.1494Z" fill="white"/>
<path d="M298.04 111.894H20.8158C21.8245 108.725 22.689 105.989 23.8417 103.396C24.1299 102.676 25.2826 102.1 26.1471 101.812C27.4439 101.524 28.7406 101.812 30.0374 101.812C116.058 101.812 202.222 101.812 288.242 101.812C295.735 101.812 294.294 100.516 297.031 108.293C297.32 109.301 297.608 110.31 298.04 111.894Z" fill="white"/>
<path d="M301.21 127.017H17.3577C17.9341 124.281 18.2223 121.688 19.0868 119.24C19.375 118.375 21.104 117.655 22.1126 117.655C26.7234 117.511 31.3342 117.655 35.945 117.655C121.677 117.655 207.265 117.655 292.997 117.655C300.634 117.655 301.354 118.375 301.21 127.017Z" fill="white"/>
<path d="M261.874 49.5291H56.9818C56.8377 49.241 56.5495 48.953 56.4054 48.6649C61.0162 44.6321 65.627 40.5992 70.3819 36.8545C71.1024 36.2784 72.3991 36.2784 73.4078 36.2784C130.755 36.2784 188.245 36.2784 245.592 36.2784C247.177 36.2784 249.05 36.9985 250.203 37.8627C254.382 41.3194 258.416 45.0642 262.451 48.6649C262.306 48.953 262.162 49.241 262.018 49.3851L261.874 49.5291Z" fill="white"/>
<path d="M15.9169 141.852C15.7728 141.42 15.6287 141.276 15.6287 141.132C15.7247 135.947 18.3183 133.354 23.4094 133.354C114.185 133.354 204.96 133.354 295.879 133.354C303.804 133.354 303.804 133.354 303.515 141.852H15.9169Z" fill="white"/>
<path d="M15.1964 156.975V149.486H303.804C303.948 150.062 304.236 150.494 304.236 151.07C304.428 155.199 302.555 157.263 298.616 157.263C205.536 157.263 112.455 157.263 19.375 157.263C18.0782 157.263 16.7814 157.263 15.3405 157.119L15.1964 156.975Z" fill="white"/>
<path d="M15.6287 165.329H303.083C303.804 171.81 303.515 172.243 297.32 172.243C205.536 172.243 113.896 172.243 22.1126 172.243C17.886 172.243 15.7247 169.938 15.6287 165.329Z" fill="white"/>
<path d="M301.066 181.028C300.682 185.061 298.664 187.078 295.014 187.078C204.527 187.078 114.185 187.078 23.6976 187.078C20.1434 187.078 18.1742 185.061 17.79 181.028H300.922H301.066Z" fill="white"/>
<path d="M297.031 196.872C297.031 201.481 294.582 202.201 290.836 202.201C203.086 202.201 115.193 202.201 27.4439 202.201C23.5535 202.201 22.4008 200.472 21.9685 196.872H297.176H297.031Z" fill="white"/>
<path d="M28.0202 212.427H290.836C290.836 216.172 288.818 217.036 285.504 217.036C201.213 217.036 117.066 217.036 32.7751 217.036C29.6052 217.036 28.5966 215.452 28.0202 212.427Z" fill="white"/>
<path d="M855.223 74H349.777C348.796 74 348 74.8954 348 76C348 77.1046 348.796 78 349.777 78H855.223C856.204 78 857 77.1046 857 76C857 74.8954 856.204 74 855.223 74Z" fill="white"/>
<path d="M855.223 177H349.777C348.796 177 348 177.895 348 179C348 180.105 348.796 181 349.777 181H855.223C856.204 181 857 180.105 857 179C857 177.895 856.204 177 855.223 177Z" fill="white"/>
<path d="M431.936 152.967C432.923 153.756 433.318 154.546 433.121 155.336C432.726 156.125 431.936 156.52 430.751 156.52H425.023C423.838 156.52 422.653 156.125 421.468 155.138L391.844 132.633L362.22 155.138C361.035 155.928 359.85 156.52 358.665 156.52H352.937C351.555 156.52 350.765 156.125 350.567 155.336C350.172 154.546 350.567 153.756 351.752 152.967L385.327 127.697L352.937 103.218C351.95 102.428 351.555 101.638 351.752 100.849C352.147 100.059 352.937 99.6642 354.32 99.6642H359.85C361.035 99.6642 362.22 100.059 363.405 101.046L392.042 122.762L420.678 101.046C421.863 100.256 423.048 99.6642 424.233 99.6642H429.763C431.146 99.6642 431.936 100.059 432.331 100.849C432.726 101.638 432.331 102.428 431.146 103.218L398.756 127.697L432.331 152.967H431.936Z" fill="white"/>
<path d="M439.243 132.238C439.243 130.264 440.231 129.474 442.008 129.474H477.162C479.137 129.474 479.927 130.461 479.927 132.238V134.607C479.927 136.581 478.94 137.371 477.162 137.371H442.008C440.033 137.371 439.243 136.384 439.243 134.607V132.238Z" fill="white"/>
<path d="M615.607 99.4668C616.792 99.4668 617.582 99.8616 617.977 100.454C618.372 101.046 617.977 101.836 617.582 102.823L580.848 154.744C580.058 155.928 578.873 156.52 577.293 156.52H572.158C570.578 156.52 569.393 155.928 568.603 154.744L552.606 132.238L536.609 154.744C535.621 155.928 534.436 156.52 533.054 156.52H527.721C526.141 156.52 524.956 155.928 524.166 154.744L487.432 102.823C486.84 101.836 486.642 101.046 487.037 100.454C487.432 99.8616 488.025 99.4668 489.407 99.4668H493.357C494.739 99.4668 495.924 100.059 496.714 101.244L530.289 149.018L547.471 124.934L531.671 102.823C531.079 101.836 530.881 101.046 531.276 100.454C531.671 99.8616 532.264 99.4668 533.646 99.4668H537.596C538.979 99.4668 540.164 100.059 540.954 101.244L574.725 149.018L608.3 101.244C609.09 100.059 610.275 99.4668 611.657 99.4668H615.607Z" fill="white"/>
<path d="M692.235 152.967C693.025 153.954 693.025 154.744 692.828 155.336C692.433 155.928 691.643 156.323 690.458 156.323H686.508C685.125 156.323 683.941 155.731 683.151 154.546L675.251 143.886H620.149L612.25 154.546C611.46 155.731 610.275 156.323 608.892 156.323H604.942C603.757 156.323 602.967 155.928 602.572 155.336C602.177 154.744 602.572 153.954 603.165 152.967L641.281 101.046C642.071 99.8616 643.256 99.2694 644.836 99.2694H650.169C651.749 99.2694 652.934 99.8616 653.724 101.046L691.84 152.967H692.235ZM625.679 136.384H669.721L647.601 106.376L625.482 136.384H625.679Z" fill="white"/>
<path d="M762.346 99.4668C764.321 99.4668 765.111 100.454 765.111 102.231V104.6C765.111 106.574 764.124 107.363 762.346 107.363H728.377V153.362C728.377 155.336 727.39 156.125 725.612 156.125H722.847C720.872 156.125 720.082 155.138 720.082 153.362V107.363H686.113C684.138 107.363 683.348 106.376 683.348 104.6V102.231C683.348 100.256 684.336 99.4668 686.113 99.4668H762.544H762.346Z" fill="white"/>
<path d="M851.614 99.4668C853.589 99.4668 854.379 100.454 854.379 102.231V104.6C854.379 106.574 853.392 107.363 851.614 107.363H817.645V153.362C817.645 155.336 816.658 156.125 814.88 156.125H812.115C810.14 156.125 809.35 155.138 809.35 153.362V107.363H775.381C773.406 107.363 772.616 106.376 772.616 104.6V102.231C772.616 100.256 773.604 99.4668 775.381 99.4668H851.812H851.614Z" fill="white"/>
</svg>
