<svg width="371" height="312" viewBox="0 0 371 312" fill="none" xmlns="http://www.w3.org/2000/svg">
<g clip-path="url(#clip0_30_289)">
<path d="M270.44 28.8216H100.416C106.612 19.3157 143.499 4.04851 166.985 1.45597C205.024 -3.00895 239.461 5.77687 270.44 28.8216Z" fill="white"/>
<path d="M59.4955 76.9276C61.945 73.0388 63.9622 69.5821 66.2676 66.5575C66.9881 65.6933 68.8612 65.5493 70.158 65.5493C80.5323 65.5493 90.9066 65.5493 101.281 65.5493C166.985 65.5493 232.545 65.5493 298.248 65.5493C302.571 65.5493 305.453 66.4134 307.326 70.4463C308.335 72.6067 309.631 74.4791 311.216 77.0716H59.4955V76.9276Z" fill="white"/>
<path d="M52.1471 92.7709C53.732 89.4582 54.8847 86.5776 56.4697 83.8411C57.0461 82.8328 58.7751 82.1127 59.9278 82.1127C64.2504 81.9687 68.5731 82.1127 72.8957 82.1127C150.415 82.1127 227.934 82.1127 305.453 82.1127C314.818 82.1127 315.683 82.8328 318.277 92.9149H52.1471V92.7709Z" fill="white"/>
<path d="M69.1494 61.2284C72.7516 56.9075 75.6333 53.1627 79.0914 49.706C80.1 48.6978 82.2613 48.8418 83.8463 48.8418C150.415 48.8418 216.983 48.8418 283.552 48.6978C289.603 48.6978 293.926 50.1381 296.952 55.1791C298.248 57.1955 299.689 58.9239 301.562 61.2284H69.1494Z" fill="white"/>
<path d="M324.04 107.894H46.8158C47.8245 104.725 48.689 101.989 49.8417 99.3963C50.1299 98.6761 51.2826 98.1 52.1471 97.8119C53.4439 97.5239 54.7406 97.8119 56.0374 97.8119C142.058 97.8119 228.222 97.8119 314.242 97.8119C321.735 97.8119 320.294 96.5157 323.031 104.293C323.32 105.301 323.608 106.31 324.04 107.894Z" fill="white"/>
<path d="M327.21 123.017H43.3577C43.9341 120.281 44.2223 117.688 45.0868 115.24C45.375 114.375 47.104 113.655 48.1126 113.655C52.7234 113.511 57.3342 113.655 61.945 113.655C147.677 113.655 233.265 113.655 318.997 113.655C326.634 113.655 327.354 114.375 327.21 123.017Z" fill="white"/>
<path d="M287.874 45.5291H82.9818C82.8377 45.241 82.5495 44.953 82.4054 44.6649C87.0162 40.6321 91.627 36.5992 96.3819 32.8545C97.1024 32.2784 98.3991 32.2784 99.4078 32.2784C156.755 32.2784 214.245 32.2784 271.592 32.2784C273.177 32.2784 275.05 32.9985 276.203 33.8627C280.382 37.3194 284.416 41.0642 288.451 44.6649C288.306 44.953 288.162 45.241 288.018 45.3851L287.874 45.5291Z" fill="white"/>
<path d="M41.9169 137.852C41.7728 137.42 41.6287 137.276 41.6287 137.132C41.7247 131.947 44.3183 129.354 49.4094 129.354C140.185 129.354 230.96 129.354 321.879 129.354C329.804 129.354 329.804 129.354 329.515 137.852H41.9169Z" fill="white"/>
<path d="M41.1964 152.975V145.486H329.804C329.948 146.062 330.236 146.494 330.236 147.07C330.428 151.199 328.555 153.263 324.616 153.263C231.536 153.263 138.455 153.263 45.375 153.263C44.0782 153.263 42.7814 153.263 41.3405 153.119L41.1964 152.975Z" fill="white"/>
<path d="M41.6287 161.329H329.083C329.804 167.81 329.515 168.243 323.32 168.243C231.536 168.243 139.896 168.243 48.1126 168.243C43.886 168.243 41.7247 165.938 41.6287 161.329Z" fill="white"/>
<path d="M327.066 177.028C326.682 181.061 324.664 183.078 321.014 183.078C230.527 183.078 140.185 183.078 49.6976 183.078C46.1434 183.078 44.1742 181.061 43.79 177.028H326.922H327.066Z" fill="white"/>
<path d="M323.031 192.872C323.031 197.481 320.582 198.201 316.836 198.201C229.086 198.201 141.193 198.201 53.4439 198.201C49.5535 198.201 48.4008 196.472 47.9685 192.872H323.176H323.031Z" fill="white"/>
<path d="M54.0202 208.427H316.836C316.836 212.172 314.818 213.036 311.504 213.036C227.213 213.036 143.066 213.036 58.7751 213.036C55.6052 213.036 54.5966 211.452 54.0202 208.427Z" fill="white"/>
<path d="M369.86 233.632H0.996028C0.279832 233.632 -0.300758 234.18 -0.300758 234.856C-0.300758 235.532 0.279832 236.081 0.996028 236.081H369.86C370.576 236.081 371.157 235.532 371.157 234.856C371.157 234.18 370.576 233.632 369.86 233.632Z" fill="white"/>
<path d="M369.86 309.248H0.996028C0.279832 309.248 -0.300758 309.796 -0.300758 310.472C-0.300758 311.148 0.279832 311.696 0.996028 311.696H369.86C370.576 311.696 371.157 311.148 371.157 310.472C371.157 309.796 370.576 309.248 369.86 309.248Z" fill="white"/>
<path d="M60.9364 291.244C61.6568 291.82 61.945 292.396 61.8009 292.972C61.5128 293.549 60.9364 293.837 60.0719 293.837H55.8933C55.0288 293.837 54.1643 293.549 53.2998 292.828L31.6867 276.409L10.0735 292.828C9.20901 293.404 8.34449 293.837 7.47996 293.837H3.30143C2.29281 293.837 1.71646 293.549 1.57238 292.972C1.2842 292.396 1.57238 291.82 2.4369 291.244L26.9318 272.808L3.30143 254.948C2.58099 254.372 2.29281 253.796 2.4369 253.22C2.72508 252.644 3.30143 252.356 4.31004 252.356H8.34449C9.20901 252.356 10.0735 252.644 10.9381 253.364L31.8307 269.207L52.7234 253.364C53.5879 252.788 54.4525 252.356 55.317 252.356H59.3514C60.3601 252.356 60.9364 252.644 61.2246 253.22C61.5128 253.796 61.2246 254.372 60.3601 254.948L36.7297 272.808L61.2246 291.244H60.9364Z" fill="white"/>
<path d="M66.2677 276.121C66.2677 274.681 66.9881 274.104 68.2849 274.104H93.9325C95.3733 274.104 95.9497 274.825 95.9497 276.121V277.849C95.9497 279.29 95.2292 279.866 93.9325 279.866H68.2849C66.844 279.866 66.2677 279.146 66.2677 277.849V276.121Z" fill="white"/>
<path d="M194.938 252.212C195.802 252.212 196.379 252.5 196.667 252.932C196.955 253.364 196.667 253.94 196.379 254.66L169.578 292.54C169.002 293.404 168.137 293.837 166.985 293.837H163.239C162.086 293.837 161.221 293.404 160.645 292.54L148.974 276.121L137.303 292.54C136.582 293.404 135.718 293.837 134.709 293.837H130.819C129.666 293.837 128.802 293.404 128.225 292.54L101.425 254.66C100.993 253.94 100.849 253.364 101.137 252.932C101.425 252.5 101.857 252.212 102.866 252.212H105.748C106.756 252.212 107.621 252.644 108.197 253.508L132.692 288.363L145.228 270.792L133.701 254.66C133.268 253.94 133.124 253.364 133.412 252.932C133.701 252.5 134.133 252.212 135.141 252.212H138.023C139.032 252.212 139.896 252.644 140.473 253.508L165.112 288.363L189.607 253.508C190.183 252.644 191.047 252.212 192.056 252.212H194.938Z" fill="white"/>
<path d="M250.844 291.244C251.42 291.964 251.42 292.54 251.276 292.972C250.988 293.404 250.411 293.693 249.547 293.693H246.665C245.657 293.693 244.792 293.26 244.216 292.396L238.452 284.619H198.252L192.488 292.396C191.912 293.26 191.047 293.693 190.039 293.693H187.157C186.292 293.693 185.716 293.404 185.428 292.972C185.14 292.54 185.428 291.964 185.86 291.244L213.669 253.364C214.245 252.5 215.11 252.068 216.263 252.068H220.153C221.306 252.068 222.17 252.5 222.747 253.364L250.555 291.244H250.844ZM202.286 279.146H234.418L218.28 257.253L202.142 279.146H202.286Z" fill="white"/>
<path d="M301.995 252.212C303.436 252.212 304.012 252.932 304.012 254.228V255.957C304.012 257.397 303.292 257.973 301.995 257.973H277.212V291.532C277.212 292.972 276.491 293.549 275.194 293.549H273.177C271.736 293.549 271.16 292.828 271.16 291.532V257.973H246.377C244.936 257.973 244.36 257.253 244.36 255.957V254.228C244.36 252.788 245.08 252.212 246.377 252.212H302.139H301.995Z" fill="white"/>
<path d="M367.122 252.212C368.563 252.212 369.139 252.932 369.139 254.228V255.957C369.139 257.397 368.419 257.973 367.122 257.973H342.339V291.532C342.339 292.972 341.619 293.549 340.322 293.549H338.305C336.864 293.549 336.287 292.828 336.287 291.532V257.973H311.504C310.064 257.973 309.487 257.253 309.487 255.957V254.228C309.487 252.788 310.208 252.212 311.504 252.212H367.266H367.122Z" fill="white"/>
</g>
<defs>
<clipPath id="clip0_30_289">
<rect width="371" height="312" fill="white"/>
</clipPath>
</defs>
</svg>
