<svg width="435" height="386" viewBox="0 0 435 386" fill="none" xmlns="http://www.w3.org/2000/svg">
<path d="M302.44 65.8216H132.416C138.612 56.3157 175.499 41.0485 198.985 38.456C237.024 33.991 271.461 42.7769 302.44 65.8216Z" fill="black"/>
<path d="M91.4955 113.928C93.945 110.039 95.9622 106.582 98.2676 103.557C98.9881 102.693 100.861 102.549 102.158 102.549C112.532 102.549 122.907 102.549 133.281 102.549C198.985 102.549 264.545 102.549 330.248 102.549C334.571 102.549 337.453 103.413 339.326 107.446C340.335 109.607 341.631 111.479 343.216 114.072H91.4955V113.928Z" fill="black"/>
<path d="M84.1471 129.771C85.732 126.458 86.8847 123.578 88.4697 120.841C89.046 119.833 90.7751 119.113 91.9278 119.113C96.2504 118.969 100.573 119.113 104.896 119.113C182.415 119.113 259.934 119.113 337.453 119.113C346.818 119.113 347.683 119.833 350.277 129.915H84.1471V129.771Z" fill="black"/>
<path d="M101.149 98.2284C104.752 93.9075 107.633 90.1627 111.091 86.706C112.1 85.6978 114.261 85.8418 115.846 85.8418C182.415 85.8418 248.983 85.8418 315.552 85.6978C321.603 85.6978 325.926 87.1381 328.952 92.1791C330.248 94.1955 331.689 95.9239 333.562 98.2284H101.149Z" fill="black"/>
<path d="M356.04 144.894H78.8158C79.8244 141.725 80.689 138.989 81.8417 136.396C82.1298 135.676 83.2825 135.1 84.1471 134.812C85.4439 134.524 86.7406 134.812 88.0374 134.812C174.058 134.812 260.222 134.812 346.242 134.812C353.735 134.812 352.294 133.516 355.031 141.293C355.32 142.301 355.608 143.31 356.04 144.894Z" fill="black"/>
<path d="M359.21 160.017H75.3577C75.9341 157.281 76.2223 154.688 77.0868 152.24C77.375 151.375 79.104 150.655 80.1126 150.655C84.7234 150.511 89.3342 150.655 93.945 150.655C179.677 150.655 265.265 150.655 350.997 150.655C358.634 150.655 359.354 151.375 359.21 160.017Z" fill="black"/>
<path d="M319.874 82.5291H114.982C114.838 82.241 114.55 81.953 114.405 81.6649C119.016 77.6321 123.627 73.5992 128.382 69.8545C129.102 69.2784 130.399 69.2784 131.408 69.2784C188.755 69.2784 246.245 69.2784 303.592 69.2784C305.177 69.2784 307.05 69.9985 308.203 70.8627C312.382 74.3194 316.416 78.0642 320.45 81.6649C320.306 81.953 320.162 82.241 320.018 82.3851L319.874 82.5291Z" fill="black"/>
<path d="M73.9168 174.852C73.7728 174.42 73.6287 174.276 73.6287 174.132C73.7247 168.947 76.3183 166.354 81.4094 166.354C172.184 166.354 262.96 166.354 353.879 166.354C361.804 166.354 361.804 166.354 361.515 174.852H73.9168Z" fill="black"/>
<path d="M73.1964 189.975V182.486H361.804C361.948 183.062 362.236 183.494 362.236 184.07C362.428 188.199 360.555 190.263 356.616 190.263C263.536 190.263 170.455 190.263 77.3749 190.263C76.0782 190.263 74.7814 190.263 73.3405 190.119L73.1964 189.975Z" fill="black"/>
<path d="M73.6287 198.329H361.083C361.804 204.81 361.515 205.243 355.32 205.243C263.536 205.243 171.896 205.243 80.1126 205.243C75.886 205.243 73.7247 202.938 73.6287 198.329Z" fill="black"/>
<path d="M359.066 214.028C358.682 218.061 356.664 220.078 353.014 220.078C262.527 220.078 172.184 220.078 81.6976 220.078C78.1434 220.078 76.1742 218.061 75.79 214.028H358.922H359.066Z" fill="black"/>
<path d="M355.031 229.872C355.031 234.481 352.582 235.201 348.836 235.201C261.086 235.201 173.193 235.201 85.4438 235.201C81.5535 235.201 80.4008 233.472 79.9685 229.872H355.176H355.031Z" fill="black"/>
<path d="M86.0202 245.427H348.836C348.836 249.172 346.818 250.036 343.504 250.036C259.213 250.036 175.066 250.036 90.7751 250.036C87.6052 250.036 86.5966 248.452 86.0202 245.427Z" fill="black"/>
<path d="M401.86 270.632H32.996C32.2798 270.632 31.6992 271.18 31.6992 271.856C31.6992 272.532 32.2798 273.081 32.996 273.081H401.86C402.576 273.081 403.157 272.532 403.157 271.856C403.157 271.18 402.576 270.632 401.86 270.632Z" fill="black"/>
<path d="M401.86 346.248H32.996C32.2798 346.248 31.6992 346.796 31.6992 347.472C31.6992 348.148 32.2798 348.696 32.996 348.696H401.86C402.576 348.696 403.157 348.148 403.157 347.472C403.157 346.796 402.576 346.248 401.86 346.248Z" fill="black"/>
<path d="M92.9364 328.244C93.6568 328.82 93.945 329.396 93.8009 329.972C93.5127 330.549 92.9364 330.837 92.0719 330.837H87.8933C87.0288 330.837 86.1643 330.549 85.2998 329.828L63.6866 313.409L42.0735 329.828C41.209 330.404 40.3445 330.837 39.4799 330.837H35.3014C34.2928 330.837 33.7164 330.549 33.5724 329.972C33.2842 329.396 33.5724 328.82 34.4369 328.244L58.9318 309.808L35.3014 291.948C34.581 291.372 34.2928 290.796 34.4369 290.22C34.7251 289.644 35.3014 289.356 36.31 289.356H40.3445C41.209 289.356 42.0735 289.644 42.938 290.364L63.8307 306.207L84.7234 290.364C85.5879 289.788 86.4525 289.356 87.317 289.356H91.3514C92.36 289.356 92.9364 289.644 93.2246 290.22C93.5127 290.796 93.2246 291.372 92.36 291.948L68.7297 309.808L93.2246 328.244H92.9364Z" fill="black"/>
<path d="M98.2676 313.121C98.2676 311.681 98.9881 311.104 100.285 311.104H125.932C127.373 311.104 127.95 311.825 127.95 313.121V314.849C127.95 316.29 127.229 316.866 125.932 316.866H100.285C98.844 316.866 98.2676 316.146 98.2676 314.849V313.121Z" fill="black"/>
<path d="M226.938 289.212C227.802 289.212 228.379 289.5 228.667 289.932C228.955 290.364 228.667 290.94 228.379 291.66L201.578 329.54C201.002 330.404 200.137 330.837 198.985 330.837H195.238C194.086 330.837 193.221 330.404 192.645 329.54L180.974 313.121L169.303 329.54C168.582 330.404 167.718 330.837 166.709 330.837H162.819C161.666 330.837 160.802 330.404 160.225 329.54L133.425 291.66C132.993 290.94 132.849 290.364 133.137 289.932C133.425 289.5 133.857 289.212 134.866 289.212H137.748C138.756 289.212 139.621 289.644 140.197 290.508L164.692 325.363L177.228 307.792L165.701 291.66C165.268 290.94 165.124 290.364 165.412 289.932C165.701 289.5 166.133 289.212 167.141 289.212H170.023C171.032 289.212 171.896 289.644 172.473 290.508L197.112 325.363L221.607 290.508C222.183 289.644 223.047 289.212 224.056 289.212H226.938Z" fill="black"/>
<path d="M282.844 328.244C283.42 328.964 283.42 329.54 283.276 329.972C282.988 330.404 282.411 330.693 281.547 330.693H278.665C277.657 330.693 276.792 330.26 276.216 329.396L270.452 321.619H230.252L224.488 329.396C223.912 330.26 223.047 330.693 222.039 330.693H219.157C218.292 330.693 217.716 330.404 217.428 329.972C217.14 329.54 217.428 328.964 217.86 328.244L245.669 290.364C246.245 289.5 247.11 289.068 248.263 289.068H252.153C253.306 289.068 254.17 289.5 254.747 290.364L282.555 328.244H282.844ZM234.286 316.146H266.418L250.28 294.253L234.142 316.146H234.286Z" fill="black"/>
<path d="M333.995 289.212C335.436 289.212 336.012 289.932 336.012 291.228V292.957C336.012 294.397 335.292 294.973 333.995 294.973H309.212V328.532C309.212 329.972 308.491 330.549 307.194 330.549H305.177C303.736 330.549 303.16 329.828 303.16 328.532V294.973H278.377C276.936 294.973 276.36 294.253 276.36 292.957V291.228C276.36 289.788 277.08 289.212 278.377 289.212H334.139H333.995Z" fill="black"/>
<path d="M399.122 289.212C400.563 289.212 401.139 289.932 401.139 291.228V292.957C401.139 294.397 400.419 294.973 399.122 294.973H374.339V328.532C374.339 329.972 373.619 330.549 372.322 330.549H370.305C368.864 330.549 368.287 329.828 368.287 328.532V294.973H343.504C342.064 294.973 341.487 294.253 341.487 292.957V291.228C341.487 289.788 342.208 289.212 343.504 289.212H399.266H399.122Z" fill="black"/>
</svg>
