<svg width="369" height="42" viewBox="0 0 369 42" fill="none" xmlns="http://www.w3.org/2000/svg">
<path d="M59.9364 39.244C60.6568 39.8201 60.945 40.3963 60.8009 40.9724C60.5127 41.5485 59.9364 41.8366 59.0719 41.8366H54.8933C54.0288 41.8366 53.1643 41.5485 52.2998 40.8284L30.6866 24.409L9.07352 40.8284C8.209 41.4045 7.34447 41.8366 6.47995 41.8366H2.30141C1.2928 41.8366 0.716447 41.5485 0.57236 40.9724C0.284185 40.3963 0.57236 39.8201 1.43689 39.244L25.9318 20.8082L2.30141 2.9485C1.58097 2.37238 1.2928 1.79626 1.43689 1.22014C1.72506 0.644026 2.30141 0.355957 3.31002 0.355957H7.34447C8.209 0.355957 9.07352 0.644034 9.93804 1.36418L30.8307 17.2075L51.7234 1.36418C52.5879 0.788064 53.4525 0.355957 54.317 0.355957H58.3514C59.36 0.355957 59.9364 0.644026 60.2246 1.22014C60.5127 1.79626 60.2246 2.37238 59.36 2.9485L35.7297 20.8082L60.2246 39.244H59.9364Z" fill="white"/>
<path d="M65.2676 24.1209C65.2676 22.6806 65.9881 22.1045 67.2849 22.1045H92.9324C94.3733 22.1045 94.9497 22.8246 94.9497 24.1209V25.8493C94.9497 27.2896 94.2292 27.8657 92.9324 27.8657H67.2849C65.844 27.8657 65.2676 27.1455 65.2676 25.8493V24.1209Z" fill="white"/>
<path d="M193.938 0.211945C194.802 0.211945 195.379 0.500004 195.667 0.932094C195.955 1.36418 195.667 1.9403 195.379 2.66045L168.578 40.5403C168.002 41.4045 167.137 41.8366 165.985 41.8366H162.238C161.086 41.8366 160.221 41.4045 159.645 40.5403L147.974 24.1209L136.303 40.5403C135.582 41.4045 134.718 41.8366 133.709 41.8366H129.819C128.666 41.8366 127.802 41.4045 127.225 40.5403L100.425 2.66045C99.9927 1.9403 99.8486 1.36418 100.137 0.932094C100.425 0.500004 100.857 0.211945 101.866 0.211945H104.748C105.756 0.211945 106.621 0.644025 107.197 1.5082L131.692 36.3634L144.228 18.7918L132.701 2.66045C132.268 1.9403 132.124 1.36418 132.412 0.932094C132.701 0.500004 133.133 0.211945 134.141 0.211945H137.023C138.032 0.211945 138.896 0.644025 139.473 1.5082L164.112 36.3634L188.607 1.5082C189.183 0.644025 190.047 0.211945 191.056 0.211945H193.938Z" fill="white"/>
<path d="M249.844 39.244C250.42 39.9642 250.42 40.5403 250.276 40.9724C249.988 41.4045 249.411 41.6925 248.547 41.6925H245.665C244.657 41.6925 243.792 41.2604 243.216 40.3963L237.452 32.6187H197.252L191.488 40.3963C190.912 41.2604 190.047 41.6925 189.039 41.6925H186.157C185.292 41.6925 184.716 41.4045 184.428 40.9724C184.14 40.5403 184.428 39.9642 184.86 39.244L212.669 1.36418C213.245 0.500004 214.11 0.0679016 215.263 0.0679016H219.153C220.306 0.0679016 221.17 0.500004 221.747 1.36418L249.555 39.244H249.844ZM201.286 27.1455H233.418L217.28 5.25299L201.142 27.1455H201.286Z" fill="white"/>
<path d="M300.995 0.211945C302.436 0.211945 303.012 0.932085 303.012 2.22835V3.95671C303.012 5.39701 302.292 5.97314 300.995 5.97314H276.212V39.5321C276.212 40.9724 275.491 41.5485 274.194 41.5485H272.177C270.736 41.5485 270.16 40.8284 270.16 39.5321V5.97314H245.377C243.936 5.97314 243.36 5.25298 243.36 3.95671V2.22835C243.36 0.788055 244.08 0.211945 245.377 0.211945H301.139H300.995Z" fill="white"/>
<path d="M366.122 0.211945C367.563 0.211945 368.139 0.932085 368.139 2.22835V3.95671C368.139 5.39701 367.419 5.97314 366.122 5.97314H341.339V39.5321C341.339 40.9724 340.619 41.5485 339.322 41.5485H337.305C335.864 41.5485 335.287 40.8284 335.287 39.5321V5.97314H310.504C309.064 5.97314 308.487 5.25298 308.487 3.95671V2.22835C308.487 0.788055 309.208 0.211945 310.504 0.211945H366.266H366.122Z" fill="white"/>
</svg>
