<svg width="389" height="234" viewBox="0 0 389 234" fill="none" xmlns="http://www.w3.org/2000/svg">
<g clip-path="url(#clip0_30_289)">
<path d="M278.44 37.8216H108.416C114.612 28.3157 151.499 13.0485 174.985 10.456C213.024 5.99105 247.461 14.7769 278.44 37.8216Z" fill="white"/>
<path d="M67.4955 85.9276C69.945 82.0388 71.9622 78.5821 74.2676 75.5575C74.9881 74.6933 76.8612 74.5493 78.158 74.5493C88.5323 74.5493 98.9066 74.5493 109.281 74.5493C174.985 74.5493 240.545 74.5493 306.248 74.5493C310.571 74.5493 313.453 75.4134 315.326 79.4463C316.335 81.6067 317.631 83.4791 319.216 86.0716H67.4955V85.9276Z" fill="white"/>
<path d="M60.1471 101.771C61.732 98.4582 62.8847 95.5776 64.4697 92.8411C65.046 91.8328 66.7751 91.1127 67.9278 91.1127C72.2504 90.9687 76.573 91.1127 80.8957 91.1127C158.415 91.1127 235.934 91.1127 313.453 91.1127C322.818 91.1127 323.683 91.8328 326.277 101.915H60.1471V101.771Z" fill="white"/>
<path d="M77.1494 70.2284C80.7516 65.9075 83.6333 62.1627 87.0914 58.706C88.1 57.6978 90.2613 57.8418 91.8463 57.8418C158.415 57.8418 224.983 57.8418 291.552 57.6978C297.603 57.6978 301.926 59.1381 304.952 64.1791C306.248 66.1955 307.689 67.9239 309.562 70.2284H77.1494Z" fill="white"/>
<path d="M332.04 116.894H54.8158C55.8244 113.725 56.689 110.989 57.8417 108.396C58.1298 107.676 59.2825 107.1 60.1471 106.812C61.4439 106.524 62.7406 106.812 64.0374 106.812C150.058 106.812 236.222 106.812 322.242 106.812C329.735 106.812 328.294 105.516 331.031 113.293C331.32 114.301 331.608 115.31 332.04 116.894Z" fill="white"/>
<path d="M335.21 132.017H51.3577C51.9341 129.281 52.2223 126.688 53.0868 124.24C53.375 123.375 55.104 122.655 56.1126 122.655C60.7234 122.511 65.3342 122.655 69.945 122.655C155.677 122.655 241.265 122.655 326.997 122.655C334.634 122.655 335.354 123.375 335.21 132.017Z" fill="white"/>
<path d="M295.874 54.5291H90.9818C90.8377 54.241 90.5495 53.953 90.4054 53.6649C95.0162 49.6321 99.627 45.5992 104.382 41.8545C105.102 41.2784 106.399 41.2784 107.408 41.2784C164.755 41.2784 222.245 41.2784 279.592 41.2784C281.177 41.2784 283.05 41.9985 284.203 42.8627C288.382 46.3194 292.416 50.0642 296.45 53.6649C296.306 53.953 296.162 54.241 296.018 54.3851L295.874 54.5291Z" fill="white"/>
<path d="M49.9168 146.852C49.7728 146.42 49.6287 146.276 49.6287 146.132C49.7247 140.947 52.3183 138.354 57.4094 138.354C148.184 138.354 238.96 138.354 329.879 138.354C337.804 138.354 337.804 138.354 337.515 146.852H49.9168Z" fill="white"/>
<path d="M49.1964 161.975V154.486H337.804C337.948 155.062 338.236 155.494 338.236 156.07C338.428 160.199 336.555 162.263 332.616 162.263C239.536 162.263 146.455 162.263 53.3749 162.263C52.0782 162.263 50.7814 162.263 49.3405 162.119L49.1964 161.975Z" fill="white"/>
<path d="M49.6287 170.329H337.083C337.804 176.81 337.515 177.243 331.32 177.243C239.536 177.243 147.896 177.243 56.1126 177.243C51.886 177.243 49.7247 174.938 49.6287 170.329Z" fill="white"/>
<path d="M335.066 186.028C334.682 190.061 332.664 192.078 329.014 192.078C238.527 192.078 148.184 192.078 57.6976 192.078C54.1434 192.078 52.1742 190.061 51.79 186.028H334.922H335.066Z" fill="white"/>
<path d="M331.031 201.872C331.031 206.481 328.582 207.201 324.836 207.201C237.086 207.201 149.193 207.201 61.4438 207.201C57.5535 207.201 56.4008 205.472 55.9685 201.872H331.176H331.031Z" fill="white"/>
<path d="M62.0202 217.427H324.836C324.836 221.172 322.818 222.036 319.504 222.036C235.213 222.036 151.066 222.036 66.7751 222.036C63.6052 222.036 62.5966 220.452 62.0202 217.427Z" fill="white"/>
</g>
<defs>
<clipPath id="clip0_30_289">
<rect width="389" height="234" fill="white"/>
</clipPath>
</defs>
</svg>
