<svg width="1029" height="225" viewBox="0 0 1029 225" fill="none" xmlns="http://www.w3.org/2000/svg">
<path d="M244.44 32.8216H74.4164C80.6121 23.3157 117.499 8.04851 140.985 5.45597C179.024 0.991045 213.461 9.77687 244.44 32.8216Z" fill="white"/>
<path d="M33.4955 80.9276C35.945 77.0388 37.9622 73.5821 40.2676 70.5575C40.9881 69.6933 42.8612 69.5493 44.158 69.5493C54.5323 69.5493 64.9066 69.5493 75.2809 69.5493C140.985 69.5493 206.545 69.5493 272.248 69.5493C276.571 69.5493 279.453 70.4134 281.326 74.4463C282.335 76.6067 283.631 78.4791 285.216 81.0716H33.4955V80.9276Z" fill="white"/>
<path d="M26.1471 96.7709C27.732 93.4582 28.8847 90.5776 30.4697 87.8411C31.0461 86.8328 32.7751 86.1127 33.9278 86.1127C38.2504 85.9687 42.5731 86.1127 46.8957 86.1127C124.415 86.1127 201.934 86.1127 279.453 86.1127C288.818 86.1127 289.683 86.8328 292.277 96.9149H26.1471V96.7709Z" fill="white"/>
<path d="M43.1494 65.2284C46.7516 60.9075 49.6333 57.1627 53.0914 53.706C54.1 52.6978 56.2613 52.8418 57.8463 52.8418C124.415 52.8418 190.983 52.8418 257.552 52.6978C263.603 52.6978 267.926 54.1381 270.952 59.1791C272.248 61.1955 273.689 62.9239 275.562 65.2284H43.1494Z" fill="white"/>
<path d="M298.04 111.894H20.8158C21.8245 108.725 22.689 105.989 23.8417 103.396C24.1299 102.676 25.2826 102.1 26.1471 101.812C27.4439 101.524 28.7406 101.812 30.0374 101.812C116.058 101.812 202.222 101.812 288.242 101.812C295.735 101.812 294.294 100.516 297.031 108.293C297.32 109.301 297.608 110.31 298.04 111.894Z" fill="white"/>
<path d="M301.21 127.017H17.3577C17.9341 124.281 18.2223 121.688 19.0868 119.24C19.375 118.375 21.104 117.655 22.1126 117.655C26.7234 117.511 31.3342 117.655 35.945 117.655C121.677 117.655 207.265 117.655 292.997 117.655C300.634 117.655 301.354 118.375 301.21 127.017Z" fill="white"/>
<path d="M261.874 49.5291H56.9818C56.8377 49.241 56.5495 48.953 56.4054 48.6649C61.0162 44.6321 65.627 40.5992 70.3819 36.8545C71.1024 36.2784 72.3991 36.2784 73.4078 36.2784C130.755 36.2784 188.245 36.2784 245.592 36.2784C247.177 36.2784 249.05 36.9985 250.203 37.8627C254.382 41.3194 258.416 45.0642 262.451 48.6649C262.306 48.953 262.162 49.241 262.018 49.3851L261.874 49.5291Z" fill="white"/>
<path d="M15.9169 141.852C15.7728 141.42 15.6287 141.276 15.6287 141.132C15.7247 135.947 18.3183 133.354 23.4094 133.354C114.185 133.354 204.96 133.354 295.879 133.354C303.804 133.354 303.804 133.354 303.515 141.852H15.9169Z" fill="white"/>
<path d="M15.1964 156.975V149.486H303.804C303.948 150.062 304.236 150.494 304.236 151.07C304.428 155.199 302.555 157.263 298.616 157.263C205.536 157.263 112.455 157.263 19.375 157.263C18.0782 157.263 16.7814 157.263 15.3405 157.119L15.1964 156.975Z" fill="white"/>
<path d="M15.6287 165.329H303.083C303.804 171.81 303.515 172.243 297.32 172.243C205.536 172.243 113.896 172.243 22.1126 172.243C17.886 172.243 15.7247 169.938 15.6287 165.329Z" fill="white"/>
<path d="M301.066 181.028C300.682 185.061 298.664 187.078 295.014 187.078C204.527 187.078 114.185 187.078 23.6976 187.078C20.1434 187.078 18.1742 185.061 17.79 181.028H300.922H301.066Z" fill="white"/>
<path d="M297.031 196.872C297.031 201.481 294.582 202.201 290.836 202.201C203.086 202.201 115.193 202.201 27.4439 202.201C23.5535 202.201 22.4008 200.472 21.9685 196.872H297.176H297.031Z" fill="white"/>
<path d="M28.0202 212.427H290.836C290.836 216.172 288.818 217.036 285.504 217.036C201.213 217.036 117.066 217.036 32.7751 217.036C29.6052 217.036 28.5966 215.451 28.0202 212.427Z" fill="white"/>
<path d="M460.557 144.216C461.812 145.219 462.313 146.223 462.063 147.226C461.561 148.229 460.557 148.731 459.052 148.731H451.776C450.27 148.731 448.765 148.229 447.26 146.975L409.625 118.384L371.991 146.975C370.486 147.978 368.98 148.731 367.475 148.731H360.199C358.443 148.731 357.439 148.229 357.188 147.226C356.686 146.223 357.188 145.219 358.694 144.216L401.346 112.115L360.199 81.0159C358.944 80.0127 358.443 79.0096 358.694 78.0064C359.195 77.0032 360.199 76.5016 361.955 76.5016H368.98C370.486 76.5016 371.991 77.0032 373.496 78.2572L409.876 105.845L446.256 78.2572C447.762 77.254 449.267 76.5016 450.772 76.5016H457.797C459.554 76.5016 460.557 77.0032 461.059 78.0064C461.561 79.0096 461.059 80.0127 459.554 81.0159L418.407 112.115L461.059 144.216H460.557Z" fill="white"/>
<path d="M469.84 117.883C469.84 115.375 471.095 114.372 473.353 114.372H518.012C520.521 114.372 521.525 115.626 521.525 117.883V120.892C521.525 123.4 520.27 124.404 518.012 124.404H473.353C470.844 124.404 469.84 123.15 469.84 120.892V117.883Z" fill="white"/>
<path d="M693.89 76.2508C695.395 76.2508 696.399 76.7524 696.901 77.5048C697.403 78.2572 696.901 79.2604 696.399 80.5144L649.732 146.474C648.729 147.978 647.224 148.731 645.216 148.731H638.693C636.686 148.731 635.181 147.978 634.177 146.474L613.854 117.883L593.532 146.474C592.277 147.978 590.772 148.731 589.016 148.731H582.242C580.234 148.731 578.729 147.978 577.725 146.474L531.059 80.5144C530.306 79.2604 530.055 78.2572 530.557 77.5048C531.059 76.7524 531.812 76.2508 533.568 76.2508H538.586C540.342 76.2508 541.847 77.0032 542.851 78.508L585.503 139.2L607.331 108.603L587.259 80.5144C586.507 79.2604 586.256 78.2572 586.758 77.5048C587.259 76.7524 588.012 76.2508 589.768 76.2508H594.786C596.543 76.2508 598.048 77.0032 599.052 78.508L641.955 139.2L684.607 78.508C685.611 77.0032 687.116 76.2508 688.872 76.2508H693.89Z" fill="white"/>
<path d="M791.238 144.216C792.241 145.47 792.241 146.473 791.99 147.226C791.488 147.978 790.485 148.48 788.979 148.48H783.962C782.205 148.48 780.7 147.727 779.696 146.223L769.66 132.68H699.661L689.625 146.223C688.621 147.727 687.116 148.48 685.36 148.48H680.342C678.836 148.48 677.833 147.978 677.331 147.226C676.829 146.473 677.331 145.47 678.084 144.216L726.506 78.2572C727.51 76.7524 729.015 76 731.023 76H737.797C739.804 76 741.309 76.7524 742.313 78.2572L790.736 144.216H791.238ZM706.686 123.15H762.635L734.535 85.0286L706.435 123.15H706.686Z" fill="white"/>
<path d="M880.305 76.2508C882.814 76.2508 883.818 77.5048 883.818 79.762V82.7715C883.818 85.2794 882.564 86.2826 880.305 86.2826H837.151V144.718C837.151 147.226 835.897 148.229 833.639 148.229H830.126C827.617 148.229 826.614 146.975 826.614 144.718V86.2826H783.46C780.951 86.2826 779.947 85.0287 779.947 82.7715V79.762C779.947 77.254 781.202 76.2508 783.46 76.2508H880.556H880.305Z" fill="white"/>
<path d="M993.71 76.2508C996.219 76.2508 997.223 77.5048 997.223 79.762V82.7715C997.223 85.2794 995.968 86.2826 993.71 86.2826H950.556V144.718C950.556 147.226 949.302 148.229 947.044 148.229H943.531C941.022 148.229 940.019 146.975 940.019 144.718V86.2826H896.864C894.355 86.2826 893.352 85.0287 893.352 82.7715V79.762C893.352 77.254 894.606 76.2508 896.864 76.2508H993.961H993.71Z" fill="white"/>
</svg>
